<svg width="1200" height="1200" viewBox="0 0 1200 1200" fill="none" xmlns="http://www.w3.org/2000/svg">
  <rect width="1200" height="1200" fill="#111318"/>
  <g transform="translate(0 285)">
    <rect width="1200" height="630" fill="#111318"/>
    <rect x="64" y="64" width="1072" height="502" rx="12" fill="#1A1D23" stroke="#2D3139" stroke-width="2"/>
    <rect x="64" y="64" width="1072" height="54" rx="12" fill="#22262E"/>
    <path d="M64 106C64 112.627 69.3726 118 76 118H1124C1130.63 118 1136 112.627 1136 106V118H64V106Z" fill="#22262E"/>
    <line x1="64" y1="118" x2="1136" y2="118" stroke="#2D3139" stroke-width="2"/>
    <circle cx="94" cy="91" r="8" fill="#E06C75"/>
    <circle cx="122" cy="91" r="8" fill="#E5C07B"/>
    <circle cx="150" cy="91" r="8" fill="#7EC699"/>
    <text x="600" y="97" text-anchor="middle" fill="#6B7280" font-family="JetBrains Mono, ui-monospace, SFMono-Regular, Menlo, monospace" font-size="18" font-weight="500">-- experts-know docs --</text>
    <rect x="112" y="172" width="976" height="288" rx="6" fill="#111318" stroke="#3D4350" stroke-dasharray="10 8" stroke-width="2"/>
    <text x="148" y="222" fill="#E5C07B" font-family="JetBrains Mono, ui-monospace, SFMono-Regular, Menlo, monospace" font-size="24" font-weight="700">credentialed_review()</text>
    <text x="148" y="276" fill="#D4D0CC" font-family="JetBrains Mono, ui-monospace, SFMono-Regular, Menlo, monospace" font-size="28" font-weight="700">AI can prepare. Experts review.</text>
    <text x="148" y="330" fill="#7EC699" font-family="JetBrains Mono, ui-monospace, SFMono-Regular, Menlo, monospace" font-size="20" font-weight="500">legal · tax · compliance · security · IP</text>
    <rect x="148" y="378" width="306" height="34" rx="4" fill="rgba(229, 192, 123, 0.15)" stroke="#E5C07B"/>
    <text x="168" y="401" fill="#E5C07B" font-family="JetBrains Mono, ui-monospace, SFMono-Regular, Menlo, monospace" font-size="16" font-weight="700">built for AI agents</text>
    <path d="M838 218L1000 312L838 406V218Z" fill="#22262E" stroke="#3D4350" stroke-width="2"/>
    <path d="M866 263L944 312L866 361" stroke="#E5C07B" stroke-width="10" stroke-linecap="round" stroke-linejoin="round"/>
    <line x1="936" y1="312" x2="1026" y2="312" stroke="#7EC699" stroke-width="10" stroke-linecap="round"/>
    <text x="112" y="540" fill="#454B55" font-family="JetBrains Mono, ui-monospace, SFMono-Regular, Menlo, monospace" font-size="16">experts-know.vercel.app</text>
  </g>
</svg>
